<svg id="Livello_2" xmlns="http://www.w3.org/2000/svg" viewBox="0 0 1878 923"><defs><style>.cls-1{fill:#e20a16}.cls-2{fill:#000}</style></defs><g id="Livello_1-2"><path class="cls-2" d="M333 0C226 0 139 87 139 194v108a26 26 0 0 0 52 0V194c0-79 64-142 142-142a163 163 0 0 1 0 326H165C74 378 0 452 0 543v80a96 96 0 0 0 191 0V505a26 26 0 0 0-52 0v118a44 44 0 0 1-87 0v-80c0-62 51-113 113-113h168a215 215 0 0 0 0-430"/><path class="cls-1" d="m1849 665-3 2 2-1-4 2a319 319 0 0 1-32 14 582 582 0 0 1-117 32l-4 1-8 2-32 5c-99 17-199 26-299 32a5721 5721 0 0 1-660 4 4984 4984 0 0 1-168-11c-1 0-5 0 0 0h-10l-15-2a2400 2400 0 0 1-76-8c-11-1-21 4-23 15-2 10 5 23 15 24 80 10 162 15 243 20a6641 6641 0 0 0 659 0c103-5 206-14 308-29 43-7 86-15 128-26a556 556 0 0 0 117-42c9-5 10-20 5-28-6-10-17-10-26-6Z"/><path class="cls-1" d="M484 776c1-12 6-22 8-33l-13 2h-2a521 521 0 0 0 52-190c2-20 2-40 0-60v-4l-1-1c-1-9-2-20-5-30l-1-2-6-15-1-1c-8-10-20-13-33-10-10 3-16 10-18 21l-2 15c-1 8-2 14-4 18v1c-15 39-35 74-61 104-17 18-30 30-44 38h-1c-9 6-17 11-26 12-14 2-18-2-21-7-4-7-6-17-6-29l2-32 5-30 1-1c2-10-3-20-12-26-8-6-19-6-28-1l-21 13c-7 5-12 12-13 21-1 10-2 25-1 34 0 16 1 34 7 50 11 26 31 42 57 46 21 3 42-1 62-11 23-13 43-29 61-49 14-17 27-34 38-51a921 921 0 0 1-24 124l-14 43h-1l-18-4-18-4c-18-4-35-6-53-4-7 1-14 2-22 5-14 4-28 12-40 23-27 22-42 49-45 80-3 23 3 45 15 64 13 20 33 29 57 28l17-2v-1c31-7 59-23 82-46 15-15 30-33 42-52l22-37 4-7h4a68 68 0 0 0 19-1v-1Zm-79-7-1 3-17 34c-9 17-21 33-34 48-15 17-33 28-53 33-10 3-18 1-25-6a53 53 0 0 1-16-40c-1-20 8-39 26-57h1c6-8 14-13 24-19 7-3 13-5 20-6h4l25 1 46 9Z"/><path d="M638 663c-4-5-6-11-6-17l-1-328c0-6 3-12 7-16 5-5 10-7 17-7l81-1c22 0 42 5 59 13 18 8 32 20 42 36s15 36 15 58c0 32-10 57-30 77 13 9 23 21 30 35s11 31 11 50a97 97 0 0 1-57 94c-17 8-37 13-59 13h-92c-7 0-12-3-17-7Zm109-207c22 0 37-4 45-11 8-8 13-23 13-44s-7-37-20-48a72 72 0 0 0-49-17h-57v120h68Zm0 172c20 0 37-6 49-17 13-11 19-27 19-48s-6-37-19-48a72 72 0 0 0-49-17h-68v130h68Zm284 41c-33 0-60-6-80-19a64 64 0 0 1-30-58c0-25 10-44 30-57s47-20 80-20c28 0 52 3 74 8v-15c0-21-6-37-19-48a73 73 0 0 0-49-17h-78c-5 0-10-2-14-6s-7-9-7-15c0-5 3-10 7-14s9-7 14-7h78c21 0 41 5 58 13 18 8 32 20 42 36s15 35 15 58v138c0 6-2 12-6 16-5 5-10 7-17 7h-98Zm-45-47c11 5 27 8 48 8h71v-65c-22-7-46-11-71-11-21 0-37 3-48 8-12 6-17 16-17 30 0 15 5 24 17 30Zm247 41c-5-4-7-9-7-15 0-5 2-10 6-14 5-5 10-7 15-7h43V443h-43a20 20 0 0 1-21-21c0-5 2-10 6-15 4-4 9-6 15-6h61c7 0 12 3 17 7 4 5 6 10 7 17v31c17-36 45-55 83-55 18 0 35 4 49 11 15 7 27 17 36 29 8 12 13 25 13 40 0 10-3 18-8 24s-11 9-20 9-15-3-18-8c-4-6-7-14-10-25s-9-20-18-27c-8-7-21-11-37-11-12 0-23 4-32 10-10 7-18 22-24 46-7 23-10 56-10 100l1 28h44c5 0 10 2 14 6 4 5 7 10 7 15 0 6-3 11-7 15s-9 6-14 6h-134c-5 0-10-2-14-6Zm328 0c-4-4-6-9-6-15s2-10 6-15c4-4 9-6 15-6h42V443h-42a20 20 0 0 1-21-21c0-6 2-11 6-15s9-6 14-6h67c6 0 12 2 17 7 4 5 7 10 7 17v202h43a20 20 0 0 1 21 21 20 20 0 0 1-21 21h-133c-6 0-11-2-15-6Zm58-320c-7-6-10-14-10-23s3-17 10-24a32 32 0 0 1 47 0c6 7 10 15 10 24s-4 17-10 23c-7 7-15 10-24 10s-17-3-23-10Z" class="cls-2"/><circle class="cls-1" cx="1635" cy="304" r="51"/></g></svg>