<svg id="Livello_2" data-name="Livello 2" xmlns="http://www.w3.org/2000/svg" viewBox="0 0 555 203"><defs><style>.cls-1{fill:#1d1d1b}</style></defs><g id="Livello_1-2" data-name="Livello 1"><path class="cls-1" d="M202 62a47 47 0 0 0-42-30c-8-1-15 1-22 4a42 42 0 0 0-23 38v26c0 2 2 4 5 4s5-1 6-4V74a31 31 0 0 1 33-31c8 1 15 4 22 9 9 9 13 21 11 34-1 10-7 18-15 23-6 4-12 6-19 7h-36l-12 1c-10 3-17 9-22 17-2 5-4 10-4 16a648 648 0 0 0 1 26 21 21 0 0 0 11 13l-31 2 3-8-1-13 1-20h-1l-5 20-2 10 4 11-19 1 2-5v-15l1-20h-1l-4 20c-1 4-2 9-1 13l2 7a960 960 0 0 0-17-1c2-5 1-10 1-16l2-18h-1l-2 9-2 9-1 10 2 8-4 1c-6 0-13 2-13-4l4-31h-1c-4 8-23 46-3 44l168-16s-10-1-62 1l4-2c4-5 7-10 7-16v-9a2558 2558 0 0 0-2-21c-1-2-4-3-6-2s-4 3-4 6v24l-1 7c-2 3-5 4-8 4-6 0-10-5-10-10v-18c0-6 2-11 6-15 4-5 10-8 17-9h42c5 0 11-2 16-4a48 48 0 0 0 29-40l-3-21Z"/><path class="cls-1" d="m6 137 6 1h-1 1a189 189 0 0 1 68-9c-10-2-37-5-61 2a62 62 0 0 1 12-19l3-4 3-3 3-3 4-3 2-1 1-2 4-3 4-2 4-3 3-2 5-3h1v-1l-2-2v-1l5-2 3-8v-1l-1-1v-1l17-5-6 1v-1l2-5 3-7 4-6 1-4 2-3 4-6 2-4 2-3 2-3a325 325 0 0 1 3-6l-4 6-2 3-2 3-2 3-4 6-2 4-2 3a381 381 0 0 0-10 20l-14 3h-2v1l2 1 3 2 1 1-2 5-7 3-2 1v1h1l2 2v1h-2l-4 3-4 3-3 2-4 3-2 2-2 1-3 3-3 4-3 3a87 87 0 0 0-15 24l-12 5v1Zm-4 17 7 1a189 189 0 0 1 68-10c-12-1-49-6-75 8v1Z"/><path class="cls-1" d="m94 109 3-9 2-1c2 1 5 6 7 12 1 2 2 3 4 3l1-1c2 0 4-3 3-5a45 45 0 0 0-26-29v1s4 10 6 29Z"/><path class="cls-1" d="M70 80h1l14-3c3-1 5 0 6 1l12 6v-1l-15-9h-2l-15 5-1 1Zm20-17-8 2 7-1 1 1-1 7 1 1 7-3 1 1 4 8v-6l2-1 1-1-14-8h-1Zm13 2c4-33 10-48 9-48a430 430 0 0 0-14 46l-4-1 7 4c1 1 2 0 2-1Zm6-59c4 0 5 1 2 3 3-2 3 0 3 4 1-4 1-6 4-4-1-2-1-3 3-3-4 0-4-1-2-3-3 2-3 1-3-3-1 4-1 5-3 3 1 3 0 3-4 3Zm171 119 2 2-2 1h-21v58c0 2 0 2-2 2s-1-1-1-2v-58h-21l-2-1 2-2h45Zm-4 40c0-7 2-12 6-17 5-4 11-7 17-7a23 23 0 0 1 24 24c0 7-3 12-7 17s-10 7-17 7-12-3-17-7c-4-5-6-10-6-17Zm3 0a20 20 0 0 0 20 20c6 0 11-2 14-5s6-9 6-15-2-11-6-14c-3-4-8-6-14-6s-10 2-14 6c-4 3-6 8-6 14Zm52-21c0-2 1-2 2-2l1 2 1 9c3-7 10-12 18-12l2 2-2 2c-12 0-18 8-18 22v19l-2 2-2-2v-42Zm34-13c-3 3-8-2-5-4 3-3 8 1 5 4Zm-1 55-1 2-2-2v-42c0-1 0-2 2-2s1 1 1 2v42Zm46-39c4 4 6 9 6 16v23c0 2-1 2-2 2l-2-2v-22c0-13-6-19-15-19-10 0-17 7-17 21v20c0 2-1 2-2 2l-2-2v-42c0-2 1-2 2-2l1 2 1 8c3-7 9-11 17-11 6 0 10 2 13 6Zm13 18c0-7 2-12 7-17s10-7 17-7 12 3 17 7c4 5 6 10 6 17s-2 12-7 17c-4 4-10 7-16 7s-12-3-17-7c-4-5-7-10-7-17Zm4 0a20 20 0 0 0 20 20c5 0 10-2 14-5s6-9 6-15-2-11-6-14c-4-4-9-6-14-6s-11 2-14 6c-4 3-6 8-6 14ZM263 28c8 0 14 3 18 7 5 4 7 9 7 16s-2 12-7 16c-5 5-11 7-18 7h-21v23c1 5-8 5-8 0V32c0-2 2-4 4-4h25Zm-1 39c6 0 10-2 13-4 3-3 5-7 5-12s-2-8-5-11-7-5-13-5h-20v32h20Zm33 43 5 1c6 0 10-4 13-11l-20-46-1-3c0-2 2-4 5-4l3 3 17 41 17-41c1-2 2-3 4-3s4 2 4 4l-1 2-21 48c-4 11-11 16-19 16l-7-1c-2 0-3-2-3-3 0-2 2-3 4-3Zm52-62h8V38c0-5 9-5 8 0v10h18c2 0 3 1 3 3s-1 3-3 3h-18v29c0 7 4 11 10 11h5l3-1c2 0 3 1 3 3s-1 3-3 4l-10 1c-10 0-16-6-16-16V54h-8c-1 0-3-1-3-3s2-3 3-3Zm84 5c4 4 6 10 6 18v26c1 5-8 5-8 0V73c0-13-6-19-15-19s-16 6-16 20v23c0 5-9 5-8 0V32c0-3 1-4 4-4 2 0 4 2 4 4v26c3-8 10-11 19-11 5 0 10 2 14 6Zm13 21c0-7 3-14 8-19 6-5 12-8 20-8s14 2 20 8 7 11 7 19-2 14-8 19c-5 5-11 8-19 8a27 27 0 0 1-28-27Zm14-14c-4 4-6 8-6 14s2 10 6 14 8 6 14 6 10-2 14-6 6-8 6-14-2-10-6-14-8-6-14-6-10 2-14 6Zm91-7c4 4 6 10 6 18v26c0 5-8 5-8 0V73c0-13-6-19-15-19-10 0-16 6-16 21v22c0 5-9 5-8 0V51c0-2 1-4 3-4s4 2 4 4v7c4-7 10-11 20-11 5 0 10 2 14 6Z"/></g></svg>