<svg aria-hidden="true" focusable="false" role="img" xmlns="http://www.w3.org/2000/svg" viewbox="0 0 128 128" height="128px" width="128px"><path fill="#0070bc" d="M66 10.5c-4.6 0-9 .4-12.8 1-11.4 2-13.4 6.3-13.4 14v10.2h26.8v3.4H29.8c-7.9 0-14.7 4.7-16.8 13.6A50.1 50.1 0 0 0 13 80c1.9 8 6.4 13.6 14.2 13.6h9.2V81.3a17 17 0 0 1 16.8-16.6H80c7.4 0 13.4-6.2 13.4-13.7V25.5c0-7.3-6.2-12.7-13.4-14-4.6-.7-9.4-1-14-1zm-14.5 8.2a5 5 0 0 1 5 5.1 5 5 0 0 1-5 5.1 5 5 0 0 1-5-5 5 5 0 0 1 5-5.2z" /><path fill="#f50000" d="M96.7 39.1v12c0 9.2-7.8 17-16.7 17H53.2c-7.3 0-13.4 6.2-13.4 13.6v25.5c0 7.3 6.3 11.5 13.4 13.6 8.5 2.5 16.6 3 26.8 0 6.7-2 13.4-5.9 13.4-13.6V97H66.6v-3.4h40.2c7.8 0 10.7-5.5 13.4-13.6a46 46 0 0 0 0-27.3c-2-7.7-5.6-13.6-13.4-13.6zm-15 64.7a5 5 0 0 1 5 5 5 5 0 0 1-5 5.2 5 5 0 0 1-5-5.1 5 5 0 0 1 5-5.1z" /></svg>