<svg aria-hidden="true" focusable="false" role="img" xmlns="http://www.w3.org/2000/svg" viewbox="0 0 128 128" height="128px" width="128px"><g stroke="#fff" stroke-linecap="square" stroke-width="4" paint-order="stroke fill markers"><path fill="#013765" d="M63.3 1.9Q55.5 1.9 49 3C36.6 5.3 34.3 9.9 34.3 18.5v11.3h29.6v3.8H23.2c-8.7 0-16.2 5.1-18.6 15a55 55 0 0 0 0 30.1c2.1 8.8 7.2 15 15.8 15h10.2V80.2c0-9.8 8.4-18.4 18.5-18.4h29.6a15 15 0 0 0 14.8-15V18.4c0-8-6.8-14-14.8-15.4-5-.9-10.4-1.2-15.4-1.2zm-16 9c3 0 5.5 2.6 5.5 5.7s-2.5 5.7-5.6 5.7a5.6 5.6 0 0 1-5.5-5.7 5.6 5.6 0 0 1 5.5-5.6z"/><path fill="#0972ce" d="M97.2 33.6v13.1a19 19 0 0 1-18.5 18.8H49.1c-8.1 0-14.8 7-14.8 15v28.3c0 8 7 12.8 14.8 15a50 50 0 0 0 29.6 0c7.5-2 14.8-6.4 14.8-15V97.5H64v-3.8h44.5c8.6 0 11.8-6 14.8-15 3-9.3 3-18.2 0-30.1-2.1-8.6-6.2-15-14.8-15zM80.6 105a5.6 5.6 0 0 1 5.5 5.7 5.6 5.6 0 0 1-5.5 5.6 5.6 5.6 0 0 1 0-11.3z"/></g></svg>